<?xml version="1.0" encoding="utf-8"?>
<!-- Generator: Adobe Illustrator 25.4.8, SVG Export Plug-In . SVG Version: 6.00 Build 0)  -->
<svg version="1.1" id="Layer_1" xmlns="http://www.w3.org/2000/svg" xmlns:xlink="http://www.w3.org/1999/xlink" x="0px" y="0px"
	 viewBox="0 0 700 700" style="enable-background:new 0 0 700 700;" xml:space="preserve">
<style type="text/css">
	.st0{fill:#737373;}
</style>
<path class="st0" d="M132.5,60.9c-0.9-25.4-41.8-25.1-41.6,0.5c1.9,184.4,55.1,368,63.8,552.8c1,21.2,32.9,31.5,44,10.8
	c2-3.7,4-7.5,6-11.2c3.2-6.1,2-12.6-2.1-16.9C211.1,417.4,139,238.8,132.5,60.9L132.5,60.9z"/>
<path class="st0" d="M213.7,141.3c3.9,158.2,63.5,307,72.9,464.1c1.9,32.4,54.4,32.1,53.1-0.6c-6-156.9-64.4-308.2-84.4-464
	C252.1,116.1,213.1,115.2,213.7,141.3L213.7,141.3z"/>
<path class="st0" d="M476.9,588.8c-24-58.5-23.4-141.5-34.7-203.6c-17.5-96-51.7-187.3-61.9-284.7c-2.6-24.5-40.4-24.9-40.7,0.5
	c-1,97.2,27.6,189.8,43.7,285.1c12,71.2,8.2,160.4,39.8,225.2c14.7,30.1,62.4,6.8,53.7-22.4C476.8,588.8,476.8,588.8,476.9,588.8
	L476.9,588.8z"/>
</svg>
